PathFileType	4	(X/Y/Z)	E:\Studenten\Marcel_BSc\Simon_27_12_2024\27-12-2024\static_00.trc
DataRate	CameraRate	NumFrames	NumMarkers	Units	OrigDataRate	OrigDataStartFrame	OrigNumFrames
200.0	200.0	4	63	mm	200.0	318	175	
Frame#	Time	FHD			LBHD			RBHD			RBAR			LBAR			RASI			RSACR			LSACR			LASI			USACR			C7			CLAV			T10			RSHO			LSHO			LTHI1			LTHI3			LTHI2			LTHI4			LLFC			LMFC			LTIB1			LTIB2			LTIB3			LTIB4			LMMAL			LLMAL			LHEE			LMT1			LMT5			LMT3			RTHI1			RTHI3			RTHI2			RTHI4			RLFC			RMFC			RTIB1			RTIB3			RTIB2			RTIB4			RLMAL			RMMAL			RHEE			RMT5			RMT1			RMT3			LMEP			LLEP			LDUPA			LMUPA			LUUPA			LUL			LRAD			LRFIN			RUL			RRAD			RUFIN			RMEP			RDUPA			RUUPA			RLEP			RMUPA			
		X1	Y1	Z1	X2	Y2	Z2	X3	Y3	Z3	X4	Y4	Z4	X5	Y5	Z5	X6	Y6	Z6	X7	Y7	Z7	X8	Y8	Z8	X9	Y9	Z9	X10	Y10	Z10	X11	Y11	Z11	X12	Y12	Z12	X13	Y13	Z13	X14	Y14	Z14	X15	Y15	Z15	X16	Y16	Z16	X17	Y17	Z17	X18	Y18	Z18	X19	Y19	Z19	X20	Y20	Z20	X21	Y21	Z21	X22	Y22	Z22	X23	Y23	Z23	X24	Y24	Z24	X25	Y25	Z25	X26	Y26	Z26	X27	Y27	Z27	X28	Y28	Z28	X29	Y29	Z29	X30	Y30	Z30	X31	Y31	Z31	X32	Y32	Z32	X33	Y33	Z33	X34	Y34	Z34	X35	Y35	Z35	X36	Y36	Z36	X37	Y37	Z37	X38	Y38	Z38	X39	Y39	Z39	X40	Y40	Z40	X41	Y41	Z41	X42	Y42	Z42	X43	Y43	Z43	X44	Y44	Z44	X45	Y45	Z45	X46	Y46	Z46	X47	Y47	Z47	X48	Y48	Z48	X49	Y49	Z49	X50	Y50	Z50	X51	Y51	Z51	X52	Y52	Z52	X53	Y53	Z53	X54	Y54	Z54	X55	Y55	Z55	X56	Y56	Z56	X57	Y57	Z57	X58	Y58	Z58	X59	Y59	Z59	X60	Y60	Z60	X61	Y61	Z61	X62	Y62	Z62	X63	Y63	Z63	
318	1.585	116.30231	1728.6954	-929.88367	285.85336	1696.2925	-852.03961	241.48444	1725.3462	-1004.9808	2013.7484	28.06769	-2007.884	1903.4409	23.656347	212.53574	156.19258	969.89429	-1063.4315	345.62003	977.2348	-959.42358	343.20593	973.09753	-917.14813	151.09801	973.70312	-814.16382	336.18945	985.76611	-934.24829	319.16962	1480.6174	-923.93408	162.95491	1432.0743	-924.90155	330.99631	1169.115	-935.12097	299.25784	1467.6768	-1085.4843	285.29849	1460.495	-763.7077	220.26186	813.30823	-733.54816	187.65405	790.55664	-733.57495	234.99318	774.39917	-725.03009	189.81279	726.17621	-725.28693	260.17761	499.32266	-743.87335	235.38097	469.48489	-848.1546	319.1402	416.5871	-731.59991	295.38705	378.17224	-715.2171	342.33426	366.72278	-728.4967	308.61188	313.94247	-710.22534	251.71667	96.722977	-822.29694	282.0369	76.753136	-736.79553	331.19724	35.507755	-786.26654	111.25208	41.010601	-775.09686	155.15735	29.491447	-703.83905	128.78917	33.599041	-724.60785	207.22433	817.29352	-1144.3414	160.72809	781.54382	-1131.2876	207.92795	784.74609	-1149.8068	187.16737	721.6756	-1146.9391	255.22369	500.65833	-1125.1321	241.80066	482.98456	-1003.6666	306.01767	433.00735	-1137.3785	339.24277	382.93472	-1143.0646	289.06564	385.53555	-1154.8966	311.90973	323.7952	-1155.9576	287.9433	82.841103	-1132.3131	248.759	100.36021	-1049.8145	328.39749	33.227928	-1073.7545	172.4651	28.906059	-1181.8973	119.22984	45.823715	-1119.1823	130.73825	35.037949	-1159.8994	214.11266	1294.8782	-502.72937	273.061	1392.999	-489.49255	305.20657	1386.3929	-564.151	323.51492	1379.2808	-623.19781	297.72101	1420.3552	-635.38513	227.09993	1362.142	-232.71361	168.27043	1340.3416	-247.58415	158.02029	1350.1686	-153.27579	248.85843	1399.2443	-1607.7787	198.74054	1404.8137	-1592.6698	183.62151	1405.4486	-1697.8375	232.32465	1301.6486	-1358.2739	286.6387	1432.8669	-1283.9839	315.18317	1425.925	-1209.6067	284.93799	1403.3262	-1363.1534	321.45084	1400.9916	-1266.6378
319	1.59	116.27401	1728.6652	-929.81573	285.83707	1696.2863	-851.97986	241.44887	1725.3567	-1004.8673	2013.7947	28.018911	-2007.8365	1903.3315	23.768713	212.71063	156.19511	969.90302	-1063.4557	345.63974	977.23608	-959.45856	343.21701	973.09747	-917.17627	151.09033	973.69952	-814.19482	336.19965	985.77625	-934.27826	319.19586	1480.6106	-923.91791	162.97563	1432.0715	-924.89429	331.00137	1169.1006	-935.12958	299.29889	1467.6791	-1085.4667	285.31937	1460.4672	-763.68933	220.26456	813.30695	-733.55878	187.65514	790.55035	-733.59961	234.98917	774.39954	-725.06842	189.80756	726.16772	-725.23053	260.17438	499.32468	-743.88721	235.3741	469.47971	-848.17761	319.13333	416.58228	-731.6109	295.39069	378.16684	-715.23224	342.33075	366.74005	-728.49945	308.6398	313.92422	-710.2406	251.72314	96.797279	-822.55762	282.04065	76.755127	-736.8009	331.19397	35.507999	-786.27118	111.25114	41.00671	-775.09998	155.15736	29.492493	-703.84857	128.78983	33.6012	-724.60944	207.22519	817.29401	-1144.369	160.76445	781.57147	-1131.3314	208.02013	784.51746	-1149.5337	187.16272	721.66309	-1146.9565	255.21794	500.65814	-1125.1465	241.80421	482.98383	-1003.6806	306.01743	433.00378	-1137.3932	339.24136	382.93134	-1143.0841	289.02701	385.58063	-1155.2018	311.9075	323.7778	-1155.9752	287.94162	82.837891	-1132.3134	248.76727	100.34539	-1049.8188	328.39487	33.229649	-1073.7506	172.48691	28.900602	-1181.8895	119.23156	45.821781	-1119.1698	130.73352	35.030396	-1159.8823	214.08801	1294.8617	-502.72382	273.09744	1392.9052	-489.49518	305.26053	1386.339	-564.15192	323.52695	1379.2365	-623.20905	297.75003	1420.3048	-635.38666	227.13934	1362.0491	-232.70758	168.2823	1340.3333	-247.58	158.07379	1350.1797	-153.36534	248.96306	1399.2032	-1607.8298	198.85974	1404.9789	-1592.6707	183.76866	1405.6282	-1697.8453	232.25916	1301.735	-1358.2777	286.70181	1432.8574	-1283.9929	315.22644	1425.9137	-1209.6084	285.07898	1403.4491	-1363.161	321.48969	1400.9648	-1266.6213
320	1.595	116.23988	1728.6152	-929.75446	285.82593	1696.2877	-851.91779	241.41672	1725.3796	-1004.8157	2013.782	28.04598	-2007.8693	1903.4008	23.749708	212.65654	156.20787	969.9137	-1063.4766	345.61047	977.24152	-959.50092	343.21109	973.09418	-917.20856	151.0815	973.69452	-814.21021	336.19339	985.77161	-934.29401	319.15564	1480.5908	-923.91138	163.00267	1432.0687	-924.89337	330.9996	1169.0951	-935.14136	299.34149	1467.6871	-1085.4486	285.33243	1460.4409	-763.67108	220.27296	813.30768	-733.58557	187.66603	790.53778	-733.61743	235.00626	774.39392	-725.09357	189.8084	726.1684	-725.2439	260.17081	499.33411	-743.90521	235.12106	469.52515	-848.44427	319.12985	416.58459	-731.64331	295.38037	378.1763	-715.25696	342.32812	366.73276	-728.5246	308.64502	313.91248	-710.30536	251.45772	96.807014	-822.72211	282.04364	76.756584	-736.81274	331.18274	35.504391	-786.26196	111.25162	41.007568	-775.09625	155.16203	29.490784	-703.83966	128.78764	33.60355	-724.60175	207.22403	817.29492	-1144.3987	160.73322	781.54108	-1131.3234	207.91974	784.74817	-1149.8433	187.16765	721.66968	-1146.9851	255.2206	500.65433	-1125.1642	241.80559	482.98938	-1003.6919	306.02209	433.00525	-1137.4084	339.25424	382.92505	-1143.0952	289.01865	385.57132	-1155.2035	311.90598	323.77744	-1155.9885	287.93369	82.833344	-1132.3213	248.76308	100.35009	-1049.8105	328.39539	33.225132	-1073.7487	172.47832	28.898735	-1181.9095	119.22652	45.823441	-1119.1812	130.74358	35.028461	-1159.8883	214.03004	1294.8611	-502.67899	273.13535	1392.85	-489.48517	305.2811	1386.2823	-564.15662	323.5412	1379.1887	-623.21149	297.77454	1420.2676	-635.37933	227.18466	1361.9624	-232.69495	168.28905	1340.316	-247.56862	158.04048	1350.2646	-153.63019	249.08208	1399.337	-1607.676	198.96823	1405.1335	-1592.6763	183.90309	1405.9723	-1697.854	232.18314	1301.825	-1358.28	286.7735	1432.8457	-1283.9926	315.27234	1425.8816	-1209.5901	284.98596	1403.5057	-1362.958	321.52945	1400.934	-1266.6135
321	1.6	116.22137	1728.5695	-929.69006	285.80045	1696.2916	-851.86523	241.39581	1725.4019	-1004.7566	2013.7594	28.054811	-2007.8871	1903.3596	23.805986	212.71635	156.2058	969.93036	-1063.507	345.62842	977.24188	-959.52399	343.21814	973.09912	-917.22748	151.07619	973.69879	-814.22955	336.19626	985.77783	-934.31616	319.20007	1480.59	-923.87823	163.02635	1432.0679	-924.88629	331.02972	1169.0858	-935.1463	299.39008	1467.6814	-1085.428	285.35147	1460.4167	-763.65094	220.27826	813.30811	-733.61206	187.66362	790.55017	-733.64508	235.00861	774.40131	-725.12506	189.83488	726.1781	-725.32428	260.1535	499.3295	-743.92542	235.35286	469.4837	-848.21655	319.12567	416.58444	-731.66235	295.37509	378.17206	-715.27136	342.50797	366.8237	-728.30396	308.58392	313.97809	-710.25183	251.68344	96.847359	-822.66754	282.03979	76.767624	-736.81152	331.1904	35.506878	-786.2674	111.25317	41.005302	-775.10693	155.16214	29.495852	-703.84174	128.78259	33.610931	-724.60352	207.21997	817.29669	-1144.4172	160.73663	781.54279	-1131.3387	207.92754	784.7439	-1149.8694	187.15363	721.66522	-1147.0067	255.22232	500.65506	-1125.175	241.81401	482.99344	-1003.7092	306.01932	432.99921	-1137.4242	339.24109	382.91837	-1143.1022	289.06714	385.52356	-1154.9286	311.91931	323.76212	-1155.9884	287.93576	82.833092	-1132.3243	248.76022	100.35194	-1049.824	328.39728	33.22366	-1073.7572	172.47023	28.893818	-1181.9048	119.22588	45.817722	-1119.1653	130.73862	35.021629	-1159.8839	213.84006	1294.9009	-503.07022	273.15677	1392.7877	-489.46582	305.29913	1386.2277	-564.15027	323.53204	1379.1505	-623.20721	297.78439	1420.2332	-635.36322	227.21992	1361.8732	-232.68486	168.31201	1340.297	-247.55202	158.15703	1350.1901	-153.37715	249.15533	1399.3202	-1607.8168	199.06911	1405.2805	-1592.6753	184.02876	1405.9927	-1697.8644	232.14476	1301.9115	-1358.2758	286.8555	1432.8275	-1283.9951	315.32718	1425.8479	-1209.5773	285.01462	1403.4023	-1362.9559	321.57629	1400.8898	-1266.604
